# xmcd
#
# Track frame offsets: 
#        150
#        24387
#        51089
#        65898
#        85638
#        102535
#        119880
#        144578
#        175648
#        194385
#        210320
#        233032
#        249485
#        271289
#        289555
#        305740
#        326172
#        339359
#
# Disc length: 4767 seconds
#
# Revision: 0
# Processed by: cddbd v1.5.2PL0 Copyright (c) Steve Scherf et al.
# Submitted via: ExactAudioCopy v1.3
#
DISCID=0c129d12
DTITLE=Various Artist - Akella Presents - vol.207 - Blues-Rock (men +
DTITLE=women)  CD2
DYEAR=2019
DGENRE=Blues
TTITLE0=Mark Searcy - Where Does It End
TTITLE1=Mindi Abair - Who Is Gonna Save My Soul
TTITLE2=61 Ghosts - Shake For Me
TTITLE3=The Cosmic Trip Advisors - Firecracker Blues
TTITLE4=Alvaro Assmar - Time to Change
TTITLE5=Danielle Nicole - It Ain't You
TTITLE6=Lou Dibello - Love Is Blind
TTITLE7=Chantel McGregor - Help Me
TTITLE8=Eric Tessmer - Good So Bad
TTITLE9=The Sheyana Band - Red Girl
TTITLE10=Jeff Liberman - Lie To Me
TTITLE11=The Blue Flames - Personal Jesus
TTITLE12=Shaw Davis and The Black Ties - Tales From The West
TTITLE13=Tullie Brae - Break These Chains
TTITLE14=Ghost Kings - Everything Is Under Control
TTITLE15=Bridget Kelly Band - Smokestack Lightning
TTITLE16=Ash Grunwald - Whispering Voice
TTITLE17=Laurelle Terrero - Capsized
EXTD=
EXTT0=
EXTT1=
EXTT2=
EXTT3=
EXTT4=
EXTT5=
EXTT6=
EXTT7=
EXTT8=
EXTT9=
EXTT10=
EXTT11=
EXTT12=
EXTT13=
EXTT14=
EXTT15=
EXTT16=
EXTT17=
PLAYORDER=
